<svg xmlns="http://www.w3.org/2000/svg" width="500" height="500" style="width:100%;height:100%"><defs><clipPath id="a"><path d="M0 0h500v500H0z"/></clipPath></defs><g clip-path="url(#a)"><path stroke-linecap="round" stroke-linejoin="round" stroke="#121331" stroke-width="12.495" d="M320.89 325.557s89.739 8.34 89.739-86.626c0-65.08-60.026-152.885-142.361-165.944-6.387-1.014-19.92-2.267-33.65-.4C150.882 83.968 89.54 173.137 89.54 238.931c0 99.129 91.527 86.626 91.527 86.626" fill="none" display="block"/><path stroke-linecap="round" stroke-linejoin="round" stroke="#121331" stroke-width="12.495" d="M127.78 428.628c0-43.383 22.337-81.546 56.137-103.62 19.418-12.68 42.612-6.311 67.534-6.311 24.922 0 48.12-6.369 67.537 6.312 33.797 22.073 56.135 60.236 56.135 103.619H127.779z" fill="none" display="block"/><path stroke-linecap="round" stroke-linejoin="round" stroke="#08A88A" stroke-width="12.495" d="M168.67 236.335h-10.06c-12.196 0-22.081-9.885-22.081-22.08 0 0 0 0 0 0 0-12.195 9.885-22.077 22.08-22.077h10.06s64.503-4.948 108.275-66.113l.018.004c12.53 4.038 23.751 11.01 32.873 20.131 14.944 14.944 24.172 35.6 24.172 58.409v28.26c0 45.614-36.964 82.578-82.578 82.578-45.564 0-82.527-36.964-82.527-82.578v-28.26c0-4.248.317-8.44.946-12.53M334.022 236.335h10.06c12.196 0 22.081-9.885 22.081-22.08 0 0 0 0 0 0 0-12.195-9.885-22.077-22.08-22.077h-10.06" fill="none" display="block"/></g></svg>