<?xml version="1.0" standalone="no"?><svg xmlns="http://www.w3.org/2000/svg" viewBox="0 0 1440 320"><path fill="orange" fill-opacity="1" d="M0,160L7.3,160C14.5,160,29,160,44,160C58.2,160,73,160,87,138.7C101.8,117,116,75,131,74.7C145.5,75,160,117,175,117.3C189.1,117,204,75,218,74.7C232.7,75,247,117,262,165.3C276.4,213,291,267,305,288C320,309,335,299,349,272C363.6,245,378,203,393,170.7C407.3,139,422,117,436,122.7C450.9,128,465,160,480,170.7C494.5,181,509,171,524,181.3C538.2,192,553,224,567,240C581.8,256,596,256,611,240C625.5,224,640,192,655,165.3C669.1,139,684,117,698,133.3C712.7,149,727,203,742,218.7C756.4,235,771,213,785,197.3C800,181,815,171,829,144C843.6,117,858,75,873,74.7C887.3,75,902,117,916,144C930.9,171,945,181,960,181.3C974.5,181,989,171,1004,176C1018.2,181,1033,203,1047,218.7C1061.8,235,1076,245,1091,245.3C1105.5,245,1120,235,1135,240C1149.1,245,1164,267,1178,256C1192.7,245,1207,203,1222,197.3C1236.4,192,1251,224,1265,218.7C1280,213,1295,171,1309,133.3C1323.6,96,1338,64,1353,74.7C1367.3,85,1382,139,1396,149.3C1410.9,160,1425,128,1433,112L1440,96L1440,320L1432.7,320C1425.5,320,1411,320,1396,320C1381.8,320,1367,320,1353,320C1338.2,320,1324,320,1309,320C1294.5,320,1280,320,1265,320C1250.9,320,1236,320,1222,320C1207.3,320,1193,320,1178,320C1163.6,320,1149,320,1135,320C1120,320,1105,320,1091,320C1076.4,320,1062,320,1047,320C1032.7,320,1018,320,1004,320C989.1,320,975,320,960,320C945.5,320,931,320,916,320C901.8,320,887,320,873,320C858.2,320,844,320,829,320C814.5,320,800,320,785,320C770.9,320,756,320,742,320C727.3,320,713,320,698,320C683.6,320,669,320,655,320C640,320,625,320,611,320C596.4,320,582,320,567,320C552.7,320,538,320,524,320C509.1,320,495,320,480,320C465.5,320,451,320,436,320C421.8,320,407,320,393,320C378.2,320,364,320,349,320C334.5,320,320,320,305,320C290.9,320,276,320,262,320C247.3,320,233,320,218,320C203.6,320,189,320,175,320C160,320,145,320,131,320C116.4,320,102,320,87,320C72.7,320,58,320,44,320C29.1,320,15,320,7,320L0,320Z"></path></svg>